<svg width="170" height="42" viewBox="0 0 170 42" fill="none" xmlns="http://www.w3.org/2000/svg" xmlns:xlink="http://www.w3.org/1999/xlink">
<path d="M-0.427,38.082C-1.171,38.898 -1.111,40.163 -0.294,40.907C0.522,41.65 1.787,41.591 2.531,40.774L-0.427,38.082ZM167.926,29.593C168.969,29.229 169.519,28.089 169.155,27.046L163.224,10.051C162.861,9.008 161.72,8.458 160.677,8.822C159.634,9.186 159.084,10.326 159.448,11.369L164.72,26.475L149.613,31.747C148.57,32.111 148.02,33.252 148.384,34.295C148.748,35.337 149.888,35.888 150.931,35.524L167.926,29.593ZM136.118,14.893L166.398,29.506L168.136,25.904L137.856,11.29L136.118,14.893ZM2.531,40.774C36.426,3.535 90.768,-6.993 136.118,14.893L137.856,11.29C90.912,-11.365 34.659,-0.467 -0.427,38.082L2.531,40.774Z" transform="rotate(234.736 84.159 7.488)" fill="#FFFFFF"/>
</svg>
