<svg width="5218" height="5218" viewBox="0 0 5218 5218" fill="none" xmlns="http://www.w3.org/2000/svg" xmlns:xlink="http://www.w3.org/1999/xlink">
<path d="M3363.225,2608.916C3363.225,3611.04 3025.507,4423.42 2608.913,4423.42C2192.317,4423.42 1854.601,3611.04 1854.601,2608.916C1854.601,1606.798 2192.317,794.42 2608.913,794.42C3025.507,794.42 3363.225,1606.798 3363.225,2608.916Z" transform="rotate(-148.289 2608.913 2608.915)" stroke="#2E2E2E" stroke-width="1" stroke-miterlimit="3.999327"/>
<path d="M3363.225,2608.916C3363.225,3611.04 3025.507,4423.42 2608.913,4423.42C2192.317,4423.42 1854.601,3611.04 1854.601,2608.916C1854.601,1606.798 2192.317,794.42 2608.913,794.42C3025.507,794.42 3363.225,1606.798 3363.225,2608.916Z" transform="rotate(-146.289 2608.913 2608.916)" stroke="#2E2E2E" stroke-width="1" stroke-miterlimit="3.999327"/>
<path d="M3363.225,2608.915C3363.225,3611.039 3025.507,4423.419 2608.913,4423.419C2192.317,4423.419 1854.601,3611.039 1854.601,2608.915C1854.601,1606.797 2192.317,794.419 2608.913,794.419C3025.507,794.419 3363.225,1606.797 3363.225,2608.915Z" transform="rotate(-144.289 2608.913 2608.915)" stroke="#2E2E2E" stroke-width="1" stroke-miterlimit="3.999327"/>
<path d="M3363.226,2608.916C3363.226,3611.04 3025.508,4423.42 2608.914,4423.42C2192.318,4423.42 1854.602,3611.04 1854.602,2608.916C1854.602,1606.798 2192.318,794.42 2608.914,794.42C3025.508,794.42 3363.226,1606.798 3363.226,2608.916Z" transform="rotate(-142.289 2608.914 2608.915)" stroke="#2E2E2E" stroke-width="1" stroke-miterlimit="3.999327"/>
<path d="M3363.225,2608.916C3363.225,3611.04 3025.507,4423.42 2608.913,4423.42C2192.317,4423.42 1854.601,3611.04 1854.601,2608.916C1854.601,1606.798 2192.317,794.42 2608.913,794.42C3025.507,794.42 3363.225,1606.798 3363.225,2608.916Z" transform="rotate(-140.289 2608.913 2608.916)" stroke="#2E2E2E" stroke-width="1" stroke-miterlimit="3.999327"/>
<path d="M3363.225,2608.916C3363.225,3611.04 3025.507,4423.42 2608.913,4423.42C2192.317,4423.42 1854.601,3611.04 1854.601,2608.916C1854.601,1606.798 2192.317,794.42 2608.913,794.42C3025.507,794.42 3363.225,1606.798 3363.225,2608.916Z" transform="rotate(-138.289 2608.913 2608.915)" stroke="#2E2E2E" stroke-width="1" stroke-miterlimit="3.999327"/>
<path d="M3363.226,2608.915C3363.226,3611.039 3025.508,4423.419 2608.914,4423.419C2192.318,4423.419 1854.602,3611.039 1854.602,2608.915C1854.602,1606.797 2192.318,794.419 2608.914,794.419C3025.508,794.419 3363.226,1606.797 3363.226,2608.915Z" transform="rotate(-136.289 2608.913 2608.914)" stroke="#2E2E2E" stroke-width="1" stroke-miterlimit="3.999327"/>
<path d="M3363.225,2608.914C3363.225,3611.038 3025.507,4423.418 2608.913,4423.418C2192.317,4423.418 1854.601,3611.038 1854.601,2608.914C1854.601,1606.796 2192.317,794.418 2608.913,794.418C3025.507,794.418 3363.225,1606.796 3363.225,2608.914Z" transform="rotate(-134.289 2608.913 2608.913)" stroke="#2E2E2E" stroke-width="1" stroke-miterlimit="3.999327"/>
<path d="M3363.226,2608.914C3363.226,3611.038 3025.508,4423.418 2608.914,4423.418C2192.318,4423.418 1854.602,3611.038 1854.602,2608.914C1854.602,1606.796 2192.318,794.418 2608.914,794.418C3025.508,794.418 3363.226,1606.796 3363.226,2608.914Z" transform="rotate(-132.289 2608.914 2608.913)" stroke="#2E2E2E" stroke-width="1" stroke-miterlimit="3.999327"/>
<path d="M3363.226,2608.915C3363.226,3611.039 3025.508,4423.419 2608.914,4423.419C2192.318,4423.419 1854.602,3611.039 1854.602,2608.915C1854.602,1606.797 2192.318,794.419 2608.914,794.419C3025.508,794.419 3363.226,1606.797 3363.226,2608.915Z" transform="rotate(-130.289 2608.913 2608.914)" stroke="#2E2E2E" stroke-width="1" stroke-miterlimit="3.999327"/>
<path d="M3363.225,2608.915C3363.225,3611.039 3025.507,4423.419 2608.913,4423.419C2192.317,4423.419 1854.601,3611.039 1854.601,2608.915C1854.601,1606.797 2192.317,794.419 2608.913,794.419C3025.507,794.419 3363.225,1606.797 3363.225,2608.915Z" transform="rotate(-128.289 2608.913 2608.915)" stroke="#2E2E2E" stroke-width="1" stroke-miterlimit="3.999327"/>
<path d="M3363.226,2608.914C3363.226,3611.038 3025.508,4423.418 2608.914,4423.418C2192.318,4423.418 1854.602,3611.038 1854.602,2608.914C1854.602,1606.796 2192.318,794.418 2608.914,794.418C3025.508,794.418 3363.226,1606.796 3363.226,2608.914Z" transform="rotate(-126.289 2608.914 2608.913)" stroke="#2E2E2E" stroke-width="1" stroke-miterlimit="3.999327"/>
<path d="M3363.226,2608.913C3363.226,3611.037 3025.508,4423.417 2608.914,4423.417C2192.318,4423.417 1854.602,3611.037 1854.602,2608.913C1854.602,1606.795 2192.318,794.417 2608.914,794.417C3025.508,794.417 3363.226,1606.795 3363.226,2608.913Z" transform="rotate(-124.289 2608.914 2608.913)" stroke="#2E2E2E" stroke-width="1" stroke-miterlimit="3.999327"/>
<path d="M3363.227,2608.912C3363.227,3611.036 3025.509,4423.416 2608.915,4423.416C2192.319,4423.416 1854.603,3611.036 1854.603,2608.912C1854.603,1606.794 2192.319,794.416 2608.915,794.416C3025.509,794.416 3363.227,1606.794 3363.227,2608.912Z" transform="rotate(-122.289 2608.915 2608.912)" stroke="#2E2E2E" stroke-width="1" stroke-miterlimit="3.999327"/>
<path d="M3363.226,2608.914C3363.226,3611.038 3025.508,4423.418 2608.914,4423.418C2192.318,4423.418 1854.602,3611.038 1854.602,2608.914C1854.602,1606.796 2192.318,794.418 2608.914,794.418C3025.508,794.418 3363.226,1606.796 3363.226,2608.914Z" transform="rotate(-120.289 2608.913 2608.913)" stroke="#2E2E2E" stroke-width="1" stroke-miterlimit="3.999327"/>
<path d="M3363.226,2608.915C3363.226,3611.039 3025.508,4423.419 2608.914,4423.419C2192.318,4423.419 1854.602,3611.039 1854.602,2608.915C1854.602,1606.797 2192.318,794.419 2608.914,794.419C3025.508,794.419 3363.226,1606.797 3363.226,2608.915Z" transform="rotate(-118.289 2608.914 2608.914)" stroke="#2E2E2E" stroke-width="1" stroke-miterlimit="3.999327"/>
<path d="M3363.226,2608.914C3363.226,3611.038 3025.508,4423.418 2608.914,4423.418C2192.318,4423.418 1854.602,3611.038 1854.602,2608.914C1854.602,1606.796 2192.318,794.418 2608.914,794.418C3025.508,794.418 3363.226,1606.796 3363.226,2608.914Z" transform="rotate(-116.289 2608.914 2608.913)" stroke="#2E2E2E" stroke-width="1" stroke-miterlimit="3.999327"/>
<path d="M3363.226,2608.914C3363.226,3611.038 3025.508,4423.418 2608.914,4423.418C2192.318,4423.418 1854.602,3611.038 1854.602,2608.914C1854.602,1606.796 2192.318,794.418 2608.914,794.418C3025.508,794.418 3363.226,1606.796 3363.226,2608.914Z" transform="rotate(-114.289 2608.914 2608.914)" stroke="#2E2E2E" stroke-width="1" stroke-miterlimit="3.999327"/>
<path d="M3363.226,2608.913C3363.226,3611.037 3025.508,4423.417 2608.914,4423.417C2192.318,4423.417 1854.602,3611.037 1854.602,2608.913C1854.602,1606.795 2192.318,794.417 2608.914,794.417C3025.508,794.417 3363.226,1606.795 3363.226,2608.913Z" transform="rotate(-112.289 2608.914 2608.913)" stroke="#2E2E2E" stroke-width="1" stroke-miterlimit="3.999327"/>
<path d="M3363.226,2608.914C3363.226,3611.038 3025.508,4423.418 2608.914,4423.418C2192.318,4423.418 1854.602,3611.038 1854.602,2608.914C1854.602,1606.796 2192.318,794.418 2608.914,794.418C3025.508,794.418 3363.226,1606.796 3363.226,2608.914Z" transform="rotate(-110.289 2608.914 2608.913)" stroke="#2E2E2E" stroke-width="1" stroke-miterlimit="3.999327"/>
<path d="M3363.225,2608.915C3363.225,3611.039 3025.507,4423.419 2608.913,4423.419C2192.317,4423.419 1854.601,3611.039 1854.601,2608.915C1854.601,1606.797 2192.317,794.419 2608.913,794.419C3025.507,794.419 3363.225,1606.797 3363.225,2608.915Z" transform="rotate(-108.289 2608.913 2608.914)" stroke="#2E2E2E" stroke-width="1" stroke-miterlimit="3.999327"/>
<path d="M3363.227,2608.913C3363.227,3611.037 3025.509,4423.417 2608.915,4423.417C2192.319,4423.417 1854.603,3611.037 1854.603,2608.913C1854.603,1606.795 2192.319,794.417 2608.915,794.417C3025.509,794.417 3363.227,1606.795 3363.227,2608.913Z" transform="rotate(-106.289 2608.914 2608.912)" stroke="#2E2E2E" stroke-width="1" stroke-miterlimit="3.999327"/>
<path d="M3363.226,2608.914C3363.226,3611.038 3025.508,4423.418 2608.914,4423.418C2192.318,4423.418 1854.602,3611.038 1854.602,2608.914C1854.602,1606.796 2192.318,794.418 2608.914,794.418C3025.508,794.418 3363.226,1606.796 3363.226,2608.914Z" transform="rotate(-104.289 2608.914 2608.913)" stroke="#2E2E2E" stroke-width="1" stroke-miterlimit="3.999327"/>
<path d="M3363.226,2608.914C3363.226,3611.038 3025.508,4423.418 2608.914,4423.418C2192.318,4423.418 1854.602,3611.038 1854.602,2608.914C1854.602,1606.796 2192.318,794.418 2608.914,794.418C3025.508,794.418 3363.226,1606.796 3363.226,2608.914Z" transform="rotate(-102.289 2608.914 2608.913)" stroke="#2E2E2E" stroke-width="1" stroke-miterlimit="3.999327"/>
<path d="M3363.226,2608.914C3363.226,3611.038 3025.508,4423.418 2608.914,4423.418C2192.318,4423.418 1854.602,3611.038 1854.602,2608.914C1854.602,1606.796 2192.318,794.418 2608.914,794.418C3025.508,794.418 3363.226,1606.796 3363.226,2608.914Z" transform="rotate(-100.289 2608.914 2608.913)" stroke="#2E2E2E" stroke-width="1" stroke-miterlimit="3.999327"/>
<path d="M3363.226,2608.914C3363.226,3611.038 3025.508,4423.418 2608.914,4423.418C2192.318,4423.418 1854.602,3611.038 1854.602,2608.914C1854.602,1606.796 2192.318,794.418 2608.914,794.418C3025.508,794.418 3363.226,1606.796 3363.226,2608.914Z" transform="rotate(-98.289 2608.913 2608.914)" stroke="#2E2E2E" stroke-width="1" stroke-miterlimit="3.999327"/>
<path d="M3363.225,2608.915C3363.225,3611.039 3025.507,4423.419 2608.913,4423.419C2192.317,4423.419 1854.601,3611.039 1854.601,2608.915C1854.601,1606.797 2192.317,794.419 2608.913,794.419C3025.507,794.419 3363.225,1606.797 3363.225,2608.915Z" transform="rotate(-96.289 2608.913 2608.914)" stroke="#2E2E2E" stroke-width="1" stroke-miterlimit="3.999327"/>
<path d="M3363.226,2608.913C3363.226,3611.037 3025.508,4423.417 2608.914,4423.417C2192.318,4423.417 1854.602,3611.037 1854.602,2608.913C1854.602,1606.795 2192.318,794.417 2608.914,794.417C3025.508,794.417 3363.226,1606.795 3363.226,2608.913Z" transform="rotate(-94.289 2608.914 2608.912)" stroke="#2E2E2E" stroke-width="1" stroke-miterlimit="3.999327"/>
<path d="M3363.226,2608.914C3363.226,3611.038 3025.508,4423.418 2608.914,4423.418C2192.318,4423.418 1854.602,3611.038 1854.602,2608.914C1854.602,1606.796 2192.318,794.418 2608.914,794.418C3025.508,794.418 3363.226,1606.796 3363.226,2608.914Z" transform="rotate(-92.289 2608.914 2608.913)" stroke="#2E2E2E" stroke-width="1" stroke-miterlimit="3.999327"/>
<path d="M3363.225,2608.915C3363.225,3611.039 3025.507,4423.419 2608.913,4423.419C2192.317,4423.419 1854.601,3611.039 1854.601,2608.915C1854.601,1606.797 2192.317,794.419 2608.913,794.419C3025.507,794.419 3363.225,1606.797 3363.225,2608.915Z" transform="rotate(-90.289 2608.913 2608.915)" stroke="#2E2E2E" stroke-width="1" stroke-miterlimit="3.999327"/>
<path d="M3363.226,2608.914C3363.226,3611.038 3025.508,4423.418 2608.914,4423.418C2192.318,4423.418 1854.602,3611.038 1854.602,2608.914C1854.602,1606.796 2192.318,794.418 2608.914,794.418C3025.508,794.418 3363.226,1606.796 3363.226,2608.914Z" transform="rotate(-88.289 2608.914 2608.913)" stroke="#2E2E2E" stroke-width="1" stroke-miterlimit="3.999327"/>
<path d="M3363.226,2608.914C3363.226,3611.038 3025.508,4423.418 2608.914,4423.418C2192.318,4423.418 1854.602,3611.038 1854.602,2608.914C1854.602,1606.796 2192.318,794.418 2608.914,794.418C3025.508,794.418 3363.226,1606.796 3363.226,2608.914Z" transform="rotate(-86.289 2608.914 2608.913)" stroke="#2E2E2E" stroke-width="1" stroke-miterlimit="3.999327"/>
<path d="M3363.226,2608.915C3363.226,3611.039 3025.508,4423.419 2608.914,4423.419C2192.318,4423.419 1854.602,3611.039 1854.602,2608.915C1854.602,1606.797 2192.318,794.419 2608.914,794.419C3025.508,794.419 3363.226,1606.797 3363.226,2608.915Z" transform="rotate(-84.289 2608.914 2608.914)" stroke="#2E2E2E" stroke-width="1" stroke-miterlimit="3.999327"/>
<path d="M3363.226,2608.913C3363.226,3611.037 3025.508,4423.417 2608.914,4423.417C2192.318,4423.417 1854.602,3611.037 1854.602,2608.913C1854.602,1606.795 2192.318,794.417 2608.914,794.417C3025.508,794.417 3363.226,1606.795 3363.226,2608.913Z" transform="rotate(-82.289 2608.914 2608.913)" stroke="#2E2E2E" stroke-width="1" stroke-miterlimit="3.999327"/>
<path d="M3363.226,2608.913C3363.226,3611.037 3025.508,4423.417 2608.914,4423.417C2192.318,4423.417 1854.602,3611.037 1854.602,2608.913C1854.602,1606.795 2192.318,794.417 2608.914,794.417C3025.508,794.417 3363.226,1606.795 3363.226,2608.913Z" transform="rotate(-80.289 2608.914 2608.912)" stroke="#2E2E2E" stroke-width="1" stroke-miterlimit="3.999327"/>
<path d="M3363.226,2608.914C3363.226,3611.038 3025.508,4423.418 2608.914,4423.418C2192.318,4423.418 1854.602,3611.038 1854.602,2608.914C1854.602,1606.796 2192.318,794.418 2608.914,794.418C3025.508,794.418 3363.226,1606.796 3363.226,2608.914Z" transform="rotate(-78.289 2608.914 2608.914)" stroke="#2E2E2E" stroke-width="1" stroke-miterlimit="3.999327"/>
<path d="M3363.225,2608.915C3363.225,3611.039 3025.507,4423.419 2608.913,4423.419C2192.317,4423.419 1854.601,3611.039 1854.601,2608.915C1854.601,1606.797 2192.317,794.419 2608.913,794.419C3025.507,794.419 3363.225,1606.797 3363.225,2608.915Z" transform="rotate(-76.289 2608.913 2608.915)" stroke="#2E2E2E" stroke-width="1" stroke-miterlimit="3.999327"/>
<path d="M3363.226,2608.914C3363.226,3611.038 3025.508,4423.418 2608.914,4423.418C2192.318,4423.418 1854.602,3611.038 1854.602,2608.914C1854.602,1606.796 2192.318,794.418 2608.914,794.418C3025.508,794.418 3363.226,1606.796 3363.226,2608.914Z" transform="rotate(-74.289 2608.914 2608.913)" stroke="#2E2E2E" stroke-width="1" stroke-miterlimit="3.999327"/>
<path d="M3363.226,2608.913C3363.226,3611.037 3025.508,4423.417 2608.914,4423.417C2192.318,4423.417 1854.602,3611.037 1854.602,2608.913C1854.602,1606.795 2192.318,794.417 2608.914,794.417C3025.508,794.417 3363.226,1606.795 3363.226,2608.913Z" transform="rotate(-72.289 2608.914 2608.913)" stroke="#2E2E2E" stroke-width="1" stroke-miterlimit="3.999327"/>
<path d="M3363.226,2608.914C3363.226,3611.038 3025.508,4423.418 2608.914,4423.418C2192.318,4423.418 1854.602,3611.038 1854.602,2608.914C1854.602,1606.796 2192.318,794.418 2608.914,794.418C3025.508,794.418 3363.226,1606.796 3363.226,2608.914Z" transform="rotate(-70.289 2608.914 2608.914)" stroke="#2E2E2E" stroke-width="1" stroke-miterlimit="3.999327"/>
<path d="M3363.226,2608.914C3363.226,3611.038 3025.508,4423.418 2608.914,4423.418C2192.318,4423.418 1854.602,3611.038 1854.602,2608.914C1854.602,1606.796 2192.318,794.418 2608.914,794.418C3025.508,794.418 3363.226,1606.796 3363.226,2608.914Z" transform="rotate(-68.289 2608.914 2608.914)" stroke="#2E2E2E" stroke-width="1" stroke-miterlimit="3.999327"/>
<path d="M3363.227,2608.913C3363.227,3611.037 3025.509,4423.417 2608.915,4423.417C2192.319,4423.417 1854.603,3611.037 1854.603,2608.913C1854.603,1606.795 2192.319,794.417 2608.915,794.417C3025.509,794.417 3363.227,1606.795 3363.227,2608.913Z" transform="rotate(-66.289 2608.915 2608.912)" stroke="#2E2E2E" stroke-width="1" stroke-miterlimit="3.999327"/>
<path d="M3363.226,2608.913C3363.226,3611.037 3025.508,4423.417 2608.914,4423.417C2192.318,4423.417 1854.602,3611.037 1854.602,2608.913C1854.602,1606.795 2192.318,794.417 2608.914,794.417C3025.508,794.417 3363.226,1606.795 3363.226,2608.913Z" transform="rotate(-64.289 2608.914 2608.913)" stroke="#2E2E2E" stroke-width="1" stroke-miterlimit="3.999327"/>
<path d="M3363.227,2608.913C3363.227,3611.037 3025.509,4423.417 2608.915,4423.417C2192.319,4423.417 1854.603,3611.037 1854.603,2608.913C1854.603,1606.795 2192.319,794.417 2608.915,794.417C3025.509,794.417 3363.227,1606.795 3363.227,2608.913Z" transform="rotate(-62.289 2608.914 2608.912)" stroke="#2E2E2E" stroke-width="1" stroke-miterlimit="3.999327"/>
<path d="M3363.227,2608.912C3363.227,3611.036 3025.509,4423.416 2608.915,4423.416C2192.319,4423.416 1854.603,3611.036 1854.603,2608.912C1854.603,1606.794 2192.319,794.416 2608.915,794.416C3025.509,794.416 3363.227,1606.794 3363.227,2608.912Z" transform="rotate(-60.289 2608.915 2608.912)" stroke="#2E2E2E" stroke-width="1" stroke-miterlimit="3.999327"/>
<path d="M3363.226,2608.915C3363.226,3611.039 3025.508,4423.419 2608.914,4423.419C2192.318,4423.419 1854.602,3611.039 1854.602,2608.915C1854.602,1606.797 2192.318,794.419 2608.914,794.419C3025.508,794.419 3363.226,1606.797 3363.226,2608.915Z" transform="rotate(-58.289 2608.914 2608.914)" stroke="#2E2E2E" stroke-width="1" stroke-miterlimit="3.999327"/>
<path d="M3363.226,2608.915C3363.226,3611.039 3025.508,4423.419 2608.914,4423.419C2192.318,4423.419 1854.602,3611.039 1854.602,2608.915C1854.602,1606.797 2192.318,794.419 2608.914,794.419C3025.508,794.419 3363.226,1606.797 3363.226,2608.915Z" transform="rotate(-56.289 2608.913 2608.914)" stroke="#2E2E2E" stroke-width="1" stroke-miterlimit="3.999327"/>
<path d="M3363.225,2608.915C3363.225,3611.039 3025.507,4423.419 2608.913,4423.419C2192.317,4423.419 1854.601,3611.039 1854.601,2608.915C1854.601,1606.797 2192.317,794.419 2608.913,794.419C3025.507,794.419 3363.225,1606.797 3363.225,2608.915Z" transform="rotate(-54.289 2608.913 2608.914)" stroke="#2E2E2E" stroke-width="1" stroke-miterlimit="3.999327"/>
<path d="M3363.227,2608.913C3363.227,3611.037 3025.509,4423.417 2608.915,4423.417C2192.319,4423.417 1854.603,3611.037 1854.603,2608.913C1854.603,1606.795 2192.319,794.417 2608.915,794.417C3025.509,794.417 3363.227,1606.795 3363.227,2608.913Z" transform="rotate(-52.289 2608.915 2608.913)" stroke="#2E2E2E" stroke-width="1" stroke-miterlimit="3.999327"/>
<path d="M3363.225,2608.916C3363.225,3611.04 3025.507,4423.42 2608.913,4423.42C2192.317,4423.42 1854.601,3611.04 1854.601,2608.916C1854.601,1606.798 2192.317,794.42 2608.913,794.42C3025.507,794.42 3363.225,1606.798 3363.225,2608.916Z" transform="rotate(-50.289 2608.913 2608.916)" stroke="#2E2E2E" stroke-width="1" stroke-miterlimit="3.999327"/>
<path d="M3363.225,2608.915C3363.225,3611.039 3025.507,4423.419 2608.913,4423.419C2192.317,4423.419 1854.601,3611.039 1854.601,2608.915C1854.601,1606.797 2192.317,794.419 2608.913,794.419C3025.507,794.419 3363.225,1606.797 3363.225,2608.915Z" transform="rotate(-48.289 2608.913 2608.915)" stroke="#2E2E2E" stroke-width="1" stroke-miterlimit="3.999327"/>
<path d="M3363.225,2608.915C3363.225,3611.039 3025.507,4423.419 2608.913,4423.419C2192.317,4423.419 1854.601,3611.039 1854.601,2608.915C1854.601,1606.797 2192.317,794.419 2608.913,794.419C3025.507,794.419 3363.225,1606.797 3363.225,2608.915Z" transform="rotate(-46.289 2608.913 2608.914)" stroke="#2E2E2E" stroke-width="1" stroke-miterlimit="3.999327"/>
<path d="M3363.225,2608.915C3363.225,3611.039 3025.507,4423.419 2608.913,4423.419C2192.317,4423.419 1854.601,3611.039 1854.601,2608.915C1854.601,1606.797 2192.317,794.419 2608.913,794.419C3025.507,794.419 3363.225,1606.797 3363.225,2608.915Z" transform="rotate(-44.289 2608.913 2608.915)" stroke="#2E2E2E" stroke-width="1" stroke-miterlimit="3.999327"/>
<path d="M3363.225,2608.915C3363.225,3611.039 3025.507,4423.419 2608.913,4423.419C2192.317,4423.419 1854.601,3611.039 1854.601,2608.915C1854.601,1606.797 2192.317,794.419 2608.913,794.419C3025.507,794.419 3363.225,1606.797 3363.225,2608.915Z" transform="rotate(-42.289 2608.913 2608.914)" stroke="#2E2E2E" stroke-width="1" stroke-miterlimit="3.999327"/>
<path d="M3363.225,2608.915C3363.225,3611.039 3025.507,4423.419 2608.913,4423.419C2192.317,4423.419 1854.601,3611.039 1854.601,2608.915C1854.601,1606.797 2192.317,794.419 2608.913,794.419C3025.507,794.419 3363.225,1606.797 3363.225,2608.915Z" transform="rotate(-40.289 2608.913 2608.915)" stroke="#2E2E2E" stroke-width="1" stroke-miterlimit="3.999327"/>
<path d="M3363.225,2608.915C3363.225,3611.039 3025.507,4423.419 2608.913,4423.419C2192.317,4423.419 1854.601,3611.039 1854.601,2608.915C1854.601,1606.797 2192.317,794.419 2608.913,794.419C3025.507,794.419 3363.225,1606.797 3363.225,2608.915Z" transform="rotate(-38.289 2608.913 2608.914)" stroke="#2E2E2E" stroke-width="1" stroke-miterlimit="3.999327"/>
<path d="M3363.226,2608.915C3363.226,3611.039 3025.508,4423.419 2608.914,4423.419C2192.318,4423.419 1854.602,3611.039 1854.602,2608.915C1854.602,1606.797 2192.318,794.419 2608.914,794.419C3025.508,794.419 3363.226,1606.797 3363.226,2608.915Z" transform="rotate(-36.289 2608.914 2608.915)" stroke="#2E2E2E" stroke-width="1" stroke-miterlimit="3.999327"/>
<path d="M3363.227,2608.914C3363.227,3611.038 3025.509,4423.418 2608.915,4423.418C2192.319,4423.418 1854.603,3611.038 1854.603,2608.914C1854.603,1606.796 2192.319,794.418 2608.915,794.418C3025.509,794.418 3363.227,1606.796 3363.227,2608.914Z" transform="rotate(-34.289 2608.914 2608.913)" stroke="#2E2E2E" stroke-width="1" stroke-miterlimit="3.999327"/>
<path d="M3363.225,2608.915C3363.225,3611.039 3025.507,4423.419 2608.913,4423.419C2192.317,4423.419 1854.601,3611.039 1854.601,2608.915C1854.601,1606.797 2192.317,794.419 2608.913,794.419C3025.507,794.419 3363.225,1606.797 3363.225,2608.915Z" transform="rotate(-32.289 2608.913 2608.915)" stroke="#2E2E2E" stroke-width="1" stroke-miterlimit="3.999327"/>
<path d="M3363.226,2608.914C3363.226,3611.038 3025.508,4423.418 2608.914,4423.418C2192.318,4423.418 1854.602,3611.038 1854.602,2608.914C1854.602,1606.796 2192.318,794.418 2608.914,794.418C3025.508,794.418 3363.226,1606.796 3363.226,2608.914Z" transform="rotate(-30.289 2608.914 2608.913)" stroke="#2E2E2E" stroke-width="1" stroke-miterlimit="3.999327"/>
<path d="M3363.225,2608.915C3363.225,3611.039 3025.507,4423.419 2608.913,4423.419C2192.317,4423.419 1854.601,3611.039 1854.601,2608.915C1854.601,1606.797 2192.317,794.419 2608.913,794.419C3025.507,794.419 3363.225,1606.797 3363.225,2608.915Z" transform="rotate(-28.289 2608.913 2608.915)" stroke="#2E2E2E" stroke-width="1" stroke-miterlimit="3.999327"/>
<path d="M3363.225,2608.916C3363.225,3611.04 3025.507,4423.42 2608.913,4423.42C2192.317,4423.42 1854.601,3611.04 1854.601,2608.916C1854.601,1606.798 2192.317,794.42 2608.913,794.42C3025.507,794.42 3363.225,1606.798 3363.225,2608.916Z" transform="rotate(-26.289 2608.913 2608.915)" stroke="#2E2E2E" stroke-width="1" stroke-miterlimit="3.999327"/>
<path d="M3363.226,2608.915C3363.226,3611.039 3025.508,4423.419 2608.914,4423.419C2192.318,4423.419 1854.602,3611.039 1854.602,2608.915C1854.602,1606.797 2192.318,794.419 2608.914,794.419C3025.508,794.419 3363.226,1606.797 3363.226,2608.915Z" transform="rotate(-24.289 2608.914 2608.915)" stroke="#2E2E2E" stroke-width="1" stroke-miterlimit="3.999327"/>
<path d="M3363.226,2608.916C3363.226,3611.04 3025.508,4423.42 2608.914,4423.42C2192.318,4423.42 1854.602,3611.04 1854.602,2608.916C1854.602,1606.798 2192.318,794.42 2608.914,794.42C3025.508,794.42 3363.226,1606.798 3363.226,2608.916Z" transform="rotate(-22.289 2608.913 2608.915)" stroke="#2E2E2E" stroke-width="1" stroke-miterlimit="3.999327"/>
<path d="M3363.226,2608.915C3363.226,3611.039 3025.508,4423.419 2608.914,4423.419C2192.318,4423.419 1854.602,3611.039 1854.602,2608.915C1854.602,1606.797 2192.318,794.419 2608.914,794.419C3025.508,794.419 3363.226,1606.797 3363.226,2608.915Z" transform="rotate(-20.289 2608.913 2608.914)" stroke="#2E2E2E" stroke-width="1" stroke-miterlimit="3.999327"/>
<path d="M3363.226,2608.915C3363.226,3611.039 3025.508,4423.419 2608.914,4423.419C2192.318,4423.419 1854.602,3611.039 1854.602,2608.915C1854.602,1606.797 2192.318,794.419 2608.914,794.419C3025.508,794.419 3363.226,1606.797 3363.226,2608.915Z" transform="rotate(-18.289 2608.913 2608.914)" stroke="#2E2E2E" stroke-width="1" stroke-miterlimit="3.999327"/>
<path d="M3363.226,2608.915C3363.226,3611.039 3025.508,4423.419 2608.914,4423.419C2192.318,4423.419 1854.602,3611.039 1854.602,2608.915C1854.602,1606.797 2192.318,794.419 2608.914,794.419C3025.508,794.419 3363.226,1606.797 3363.226,2608.915Z" transform="rotate(-16.289 2608.913 2608.914)" stroke="#2E2E2E" stroke-width="1" stroke-miterlimit="3.999327"/>
<path d="M3363.226,2608.914C3363.226,3611.038 3025.508,4423.418 2608.914,4423.418C2192.318,4423.418 1854.602,3611.038 1854.602,2608.914C1854.602,1606.796 2192.318,794.418 2608.914,794.418C3025.508,794.418 3363.226,1606.796 3363.226,2608.914Z" transform="rotate(-14.289 2608.913 2608.914)" stroke="#2E2E2E" stroke-width="1" stroke-miterlimit="3.999327"/>
<path d="M3363.226,2608.915C3363.226,3611.039 3025.508,4423.419 2608.914,4423.419C2192.318,4423.419 1854.602,3611.039 1854.602,2608.915C1854.602,1606.797 2192.318,794.419 2608.914,794.419C3025.508,794.419 3363.226,1606.797 3363.226,2608.915Z" transform="rotate(-12.289 2608.913 2608.914)" stroke="#2E2E2E" stroke-width="1" stroke-miterlimit="3.999327"/>
<path d="M3363.225,2608.916C3363.225,3611.04 3025.507,4423.42 2608.913,4423.42C2192.317,4423.42 1854.601,3611.04 1854.601,2608.916C1854.601,1606.798 2192.317,794.42 2608.913,794.42C3025.507,794.42 3363.225,1606.798 3363.225,2608.916Z" transform="rotate(-10.289 2608.913 2608.915)" stroke="#2E2E2E" stroke-width="1" stroke-miterlimit="3.999327"/>
<path d="M3363.226,2608.913C3363.226,3611.037 3025.508,4423.417 2608.914,4423.417C2192.318,4423.417 1854.602,3611.037 1854.602,2608.913C1854.602,1606.795 2192.318,794.417 2608.914,794.417C3025.508,794.417 3363.226,1606.795 3363.226,2608.913Z" transform="rotate(-8.289 2608.914 2608.913)" stroke="#2E2E2E" stroke-width="1" stroke-miterlimit="3.999327"/>
<path d="M3363.227,2608.913C3363.227,3611.037 3025.509,4423.417 2608.915,4423.417C2192.319,4423.417 1854.603,3611.037 1854.603,2608.913C1854.603,1606.795 2192.319,794.417 2608.915,794.417C3025.509,794.417 3363.227,1606.795 3363.227,2608.913Z" transform="rotate(-6.289 2608.914 2608.913)" stroke="#2E2E2E" stroke-width="1" stroke-miterlimit="3.999327"/>
<path d="M3363.226,2608.915C3363.226,3611.039 3025.508,4423.419 2608.914,4423.419C2192.318,4423.419 1854.602,3611.039 1854.602,2608.915C1854.602,1606.797 2192.318,794.419 2608.914,794.419C3025.508,794.419 3363.226,1606.797 3363.226,2608.915Z" transform="rotate(-4.289 2608.913 2608.915)" stroke="#2E2E2E" stroke-width="1" stroke-miterlimit="3.999327"/>
<path d="M3363.226,2608.914C3363.226,3611.038 3025.508,4423.418 2608.914,4423.418C2192.318,4423.418 1854.602,3611.038 1854.602,2608.914C1854.602,1606.796 2192.318,794.418 2608.914,794.418C3025.508,794.418 3363.226,1606.796 3363.226,2608.914Z" transform="rotate(-2.289 2608.914 2608.913)" stroke="#2E2E2E" stroke-width="1" stroke-miterlimit="3.999327"/>
<path d="M3363.226,2608.914C3363.226,3611.038 3025.508,4423.418 2608.914,4423.418C2192.318,4423.418 1854.602,3611.038 1854.602,2608.914C1854.602,1606.796 2192.318,794.418 2608.914,794.418C3025.508,794.418 3363.226,1606.796 3363.226,2608.914Z" transform="rotate(-0.289 2608.914 2608.913)" stroke="#2E2E2E" stroke-width="1" stroke-miterlimit="3.999327"/>
<path d="M3363.226,2608.915C3363.226,3611.039 3025.508,4423.419 2608.914,4423.419C2192.318,4423.419 1854.602,3611.039 1854.602,2608.915C1854.602,1606.797 2192.318,794.419 2608.914,794.419C3025.508,794.419 3363.226,1606.797 3363.226,2608.915Z" transform="rotate(1.711 2608.913 2608.914)" stroke="#2E2E2E" stroke-width="1" stroke-miterlimit="3.999327"/>
<path d="M3363.226,2608.914C3363.226,3611.038 3025.508,4423.418 2608.914,4423.418C2192.318,4423.418 1854.602,3611.038 1854.602,2608.914C1854.602,1606.796 2192.318,794.418 2608.914,794.418C3025.508,794.418 3363.226,1606.796 3363.226,2608.914Z" transform="rotate(3.711 2608.914 2608.913)" stroke="#2E2E2E" stroke-width="1" stroke-miterlimit="3.999327"/>
<path d="M3363.225,2608.917C3363.225,3611.041 3025.507,4423.421 2608.913,4423.421C2192.317,4423.421 1854.601,3611.041 1854.601,2608.917C1854.601,1606.799 2192.317,794.421 2608.913,794.421C3025.507,794.421 3363.225,1606.799 3363.225,2608.917Z" transform="rotate(5.711 2608.912 2608.917)" stroke="#2E2E2E" stroke-width="1" stroke-miterlimit="3.999327"/>
<path d="M3363.226,2608.915C3363.226,3611.039 3025.508,4423.419 2608.914,4423.419C2192.318,4423.419 1854.602,3611.039 1854.602,2608.915C1854.602,1606.797 2192.318,794.419 2608.914,794.419C3025.508,794.419 3363.226,1606.797 3363.226,2608.915Z" transform="rotate(7.711 2608.914 2608.914)" stroke="#2E2E2E" stroke-width="1" stroke-miterlimit="3.999327"/>
<path d="M3363.225,2608.916C3363.225,3611.04 3025.507,4423.42 2608.913,4423.42C2192.317,4423.42 1854.601,3611.04 1854.601,2608.916C1854.601,1606.798 2192.317,794.42 2608.913,794.42C3025.507,794.42 3363.225,1606.798 3363.225,2608.916Z" transform="rotate(9.711 2608.913 2608.916)" stroke="#2E2E2E" stroke-width="1" stroke-miterlimit="3.999327"/>
<path d="M3363.226,2608.915C3363.226,3611.039 3025.508,4423.419 2608.914,4423.419C2192.318,4423.419 1854.602,3611.039 1854.602,2608.915C1854.602,1606.797 2192.318,794.419 2608.914,794.419C3025.508,794.419 3363.226,1606.797 3363.226,2608.915Z" transform="rotate(11.711 2608.913 2608.914)" stroke="#2E2E2E" stroke-width="1" stroke-miterlimit="3.999327"/>
<path d="M3363.225,2608.916C3363.225,3611.04 3025.507,4423.42 2608.913,4423.42C2192.317,4423.42 1854.601,3611.04 1854.601,2608.916C1854.601,1606.798 2192.317,794.42 2608.913,794.42C3025.507,794.42 3363.225,1606.798 3363.225,2608.916Z" transform="rotate(13.711 2608.913 2608.916)" stroke="#2E2E2E" stroke-width="1" stroke-miterlimit="3.999327"/>
<path d="M3363.225,2608.916C3363.225,3611.04 3025.507,4423.42 2608.913,4423.42C2192.317,4423.42 1854.601,3611.04 1854.601,2608.916C1854.601,1606.798 2192.317,794.42 2608.913,794.42C3025.507,794.42 3363.225,1606.798 3363.225,2608.916Z" transform="rotate(15.711 2608.913 2608.916)" stroke="#2E2E2E" stroke-width="1" stroke-miterlimit="3.999327"/>
<path d="M3363.225,2608.916C3363.225,3611.04 3025.507,4423.42 2608.913,4423.42C2192.317,4423.42 1854.601,3611.04 1854.601,2608.916C1854.601,1606.798 2192.317,794.42 2608.913,794.42C3025.507,794.42 3363.225,1606.798 3363.225,2608.916Z" transform="rotate(17.711 2608.913 2608.915)" stroke="#2E2E2E" stroke-width="1" stroke-miterlimit="3.999327"/>
<path d="M3363.225,2608.915C3363.225,3611.039 3025.507,4423.419 2608.913,4423.419C2192.317,4423.419 1854.601,3611.039 1854.601,2608.915C1854.601,1606.797 2192.317,794.419 2608.913,794.419C3025.507,794.419 3363.225,1606.797 3363.225,2608.915Z" transform="rotate(19.711 2608.913 2608.915)" stroke="#2E2E2E" stroke-width="1" stroke-miterlimit="3.999327"/>
<path d="M3363.225,2608.916C3363.225,3611.04 3025.507,4423.42 2608.913,4423.42C2192.317,4423.42 1854.601,3611.04 1854.601,2608.916C1854.601,1606.798 2192.317,794.42 2608.913,794.42C3025.507,794.42 3363.225,1606.798 3363.225,2608.916Z" transform="rotate(21.711 2608.913 2608.916)" stroke="#2E2E2E" stroke-width="1" stroke-miterlimit="3.999327"/>
<path d="M3363.226,2608.915C3363.226,3611.039 3025.508,4423.419 2608.914,4423.419C2192.318,4423.419 1854.602,3611.039 1854.602,2608.915C1854.602,1606.797 2192.318,794.419 2608.914,794.419C3025.508,794.419 3363.226,1606.797 3363.226,2608.915Z" transform="rotate(23.711 2608.913 2608.915)" stroke="#2E2E2E" stroke-width="1" stroke-miterlimit="3.999327"/>
<path d="M3363.227,2608.913C3363.227,3611.037 3025.509,4423.417 2608.915,4423.417C2192.319,4423.417 1854.603,3611.037 1854.603,2608.913C1854.603,1606.795 2192.319,794.417 2608.915,794.417C3025.509,794.417 3363.227,1606.795 3363.227,2608.913Z" transform="rotate(25.711 2608.914 2608.913)" stroke="#2E2E2E" stroke-width="1" stroke-miterlimit="3.999327"/>
<path d="M3363.226,2608.915C3363.226,3611.039 3025.508,4423.419 2608.914,4423.419C2192.318,4423.419 1854.602,3611.039 1854.602,2608.915C1854.602,1606.797 2192.318,794.419 2608.914,794.419C3025.508,794.419 3363.226,1606.797 3363.226,2608.915Z" transform="rotate(27.711 2608.914 2608.914)" stroke="#2E2E2E" stroke-width="1" stroke-miterlimit="3.999327"/>
<path d="M3363.225,2608.916C3363.225,3611.04 3025.507,4423.42 2608.913,4423.42C2192.317,4423.42 1854.601,3611.04 1854.601,2608.916C1854.601,1606.798 2192.317,794.42 2608.913,794.42C3025.507,794.42 3363.225,1606.798 3363.225,2608.916Z" transform="rotate(29.711 2608.913 2608.915)" stroke="#2E2E2E" stroke-width="1" stroke-miterlimit="3.999327"/>
<path d="M3363.226,2608.914C3363.226,3611.038 3025.508,4423.418 2608.914,4423.418C2192.318,4423.418 1854.602,3611.038 1854.602,2608.914C1854.602,1606.796 2192.318,794.418 2608.914,794.418C3025.508,794.418 3363.226,1606.796 3363.226,2608.914Z" transform="rotate(31.711 2608.914 2608.913)" stroke="#2E2E2E" stroke-width="1" stroke-miterlimit="3.999327"/>
<path d="M3363.225,2608.915C3363.225,3611.039 3025.507,4423.419 2608.913,4423.419C2192.317,4423.419 1854.601,3611.039 1854.601,2608.915C1854.601,1606.797 2192.317,794.419 2608.913,794.419C3025.507,794.419 3363.225,1606.797 3363.225,2608.915Z" transform="rotate(33.711 2608.913 2608.915)" stroke="#2E2E2E" stroke-width="1" stroke-miterlimit="3.999327"/>
<path d="M3363.226,2608.914C3363.226,3611.038 3025.508,4423.418 2608.914,4423.418C2192.318,4423.418 1854.602,3611.038 1854.602,2608.914C1854.602,1606.796 2192.318,794.418 2608.914,794.418C3025.508,794.418 3363.226,1606.796 3363.226,2608.914Z" transform="rotate(35.711 2608.914 2608.913)" stroke="#2E2E2E" stroke-width="1" stroke-miterlimit="3.999327"/>
<path d="M3363.226,2608.915C3363.226,3611.039 3025.508,4423.419 2608.914,4423.419C2192.318,4423.419 1854.602,3611.039 1854.602,2608.915C1854.602,1606.797 2192.318,794.419 2608.914,794.419C3025.508,794.419 3363.226,1606.797 3363.226,2608.915Z" transform="rotate(37.711 2608.913 2608.914)" stroke="#2E2E2E" stroke-width="1" stroke-miterlimit="3.999327"/>
<path d="M3363.225,2608.917C3363.225,3611.041 3025.507,4423.421 2608.913,4423.421C2192.317,4423.421 1854.601,3611.041 1854.601,2608.917C1854.601,1606.799 2192.317,794.421 2608.913,794.421C3025.507,794.421 3363.225,1606.799 3363.225,2608.917Z" transform="rotate(39.711 2608.913 2608.916)" stroke="#2E2E2E" stroke-width="1" stroke-miterlimit="3.999327"/>
<path d="M3363.225,2608.917C3363.225,3611.041 3025.507,4423.421 2608.913,4423.421C2192.317,4423.421 1854.601,3611.041 1854.601,2608.917C1854.601,1606.799 2192.317,794.421 2608.913,794.421C3025.507,794.421 3363.225,1606.799 3363.225,2608.917Z" transform="rotate(41.711 2608.912 2608.917)" stroke="#2E2E2E" stroke-width="1" stroke-miterlimit="3.999327"/>
<path d="M3363.226,2608.914C3363.226,3611.038 3025.508,4423.418 2608.914,4423.418C2192.318,4423.418 1854.602,3611.038 1854.602,2608.914C1854.602,1606.796 2192.318,794.418 2608.914,794.418C3025.508,794.418 3363.226,1606.796 3363.226,2608.914Z" transform="rotate(43.711 2608.914 2608.914)" stroke="#2E2E2E" stroke-width="1" stroke-miterlimit="3.999327"/>
<path d="M3363.226,2608.913C3363.226,3611.037 3025.508,4423.417 2608.914,4423.417C2192.318,4423.417 1854.602,3611.037 1854.602,2608.913C1854.602,1606.795 2192.318,794.417 2608.914,794.417C3025.508,794.417 3363.226,1606.795 3363.226,2608.913Z" transform="rotate(45.711 2608.914 2608.913)" stroke="#2E2E2E" stroke-width="1" stroke-miterlimit="3.999327"/>
<path d="M3363.227,2608.913C3363.227,3611.037 3025.509,4423.417 2608.915,4423.417C2192.319,4423.417 1854.603,3611.037 1854.603,2608.913C1854.603,1606.795 2192.319,794.417 2608.915,794.417C3025.509,794.417 3363.227,1606.795 3363.227,2608.913Z" transform="rotate(47.711 2608.914 2608.913)" stroke="#2E2E2E" stroke-width="1" stroke-miterlimit="3.999327"/>
<path d="M3363.226,2608.914C3363.226,3611.038 3025.508,4423.418 2608.914,4423.418C2192.318,4423.418 1854.602,3611.038 1854.602,2608.914C1854.602,1606.796 2192.318,794.418 2608.914,794.418C3025.508,794.418 3363.226,1606.796 3363.226,2608.914Z" transform="rotate(49.711 2608.914 2608.913)" stroke="#2E2E2E" stroke-width="1" stroke-miterlimit="3.999327"/>
</svg>
