<svg width="16" height="22" viewBox="0 0 16 22" fill="none" xmlns="http://www.w3.org/2000/svg" xmlns:xlink="http://www.w3.org/1999/xlink">
<path d="M3.667,22C5.691,22 7.333,20.357 7.333,18.333L7.333,14.667L3.667,14.667C1.643,14.667 0,16.309 0,18.333C0,20.357 1.643,22 3.667,22Z" fill="#0ACF83"/>
<path d="M0,11C0,8.976 1.643,7.333 3.667,7.333L7.333,7.333L7.333,14.667L3.667,14.667C1.643,14.667 0,13.024 0,11Z" fill="#A259FF"/>
<path d="M0,3.667C0,1.643 1.643,0 3.667,0L7.333,0L7.333,7.333L3.667,7.333C1.643,7.333 0,5.691 0,3.667Z" fill="#F24E1E"/>
<path d="M7.333,0L11,0C13.024,0 14.667,1.643 14.667,3.667C14.667,5.691 13.024,7.333 11,7.333L7.333,7.333L7.333,0Z" fill="#FF7262"/>
<path d="M14.667,11C14.667,13.024 13.024,14.667 11,14.667C8.976,14.667 7.333,13.024 7.333,11C7.333,8.976 8.976,7.333 11,7.333C13.024,7.333 14.667,8.976 14.667,11Z" fill="#1ABCFE"/>
</svg>
