<svg width="30" height="30" viewBox="0 0 30 30" fill="none" xmlns="http://www.w3.org/2000/svg" xmlns:xlink="http://www.w3.org/1999/xlink">
<path d="M13.867,20.951L13.867,22.064L13.867,20.951ZM19.805,15.013L20.918,15.013L19.805,15.013ZM13.867,9.074L13.867,7.961L13.867,9.074ZM7.928,15.013L6.815,15.013L7.928,15.013ZM13.867,22.064C15.737,22.064 17.53,21.321 18.853,19.999L17.278,18.424C16.373,19.329 15.146,19.837 13.867,19.837L13.867,22.064ZM18.853,19.999C20.175,18.676 20.918,16.883 20.918,15.013L18.691,15.013C18.691,16.292 18.183,17.519 17.278,18.424L18.853,19.999ZM20.918,15.013C20.918,13.142 20.175,11.349 18.853,10.026L17.278,11.601C18.183,12.506 18.691,13.733 18.691,15.013L20.918,15.013ZM18.853,10.026C17.53,8.704 15.737,7.961 13.867,7.961L13.867,10.188C15.146,10.188 16.373,10.696 17.278,11.601L18.853,10.026ZM13.867,7.961C11.996,7.961 10.203,8.704 8.88,10.026L10.455,11.601C11.36,10.696 12.587,10.188 13.867,10.188L13.867,7.961ZM8.88,10.026C7.558,11.349 6.815,13.142 6.815,15.013L9.042,15.013C9.042,13.733 9.55,12.506 10.455,11.601L8.88,10.026ZM6.815,15.013C6.815,16.883 7.558,18.676 8.88,19.999L10.455,18.424C9.55,17.519 9.042,16.292 9.042,15.013L6.815,15.013ZM8.88,19.999C10.203,21.321 11.996,22.064 13.867,22.064L13.867,19.837C12.587,19.837 11.36,19.329 10.455,18.424L8.88,19.999Z" fill="#FFFFFF"/>
<path d="M7.929,1.652L7.929,0.538L7.929,1.652ZM1.619,20.951L1.619,9.074L-0.608,9.074L-0.608,20.951L1.619,20.951ZM1.619,9.074C1.619,7.401 2.284,5.796 3.467,4.613L1.893,3.038C0.292,4.639 -0.608,6.81 -0.608,9.074L1.619,9.074ZM3.467,4.613C4.65,3.43 6.255,2.765 7.929,2.765L7.929,0.538C5.665,0.538 3.493,1.438 1.893,3.038L3.467,4.613ZM7.929,2.765L19.805,2.765L19.805,0.538L7.929,0.538L7.929,2.765ZM19.805,2.765C21.478,2.765 23.083,3.43 24.266,4.613L25.841,3.038C24.24,1.438 22.069,0.538 19.805,0.538L19.805,2.765ZM24.266,4.613C25.449,5.796 26.114,7.401 26.114,9.074L28.341,9.074C28.341,6.81 27.441,4.639 25.841,3.038L24.266,4.613ZM26.114,9.074L26.114,20.951L28.341,20.951L28.341,9.074L26.114,9.074ZM26.114,20.951C26.114,22.624 25.449,24.229 24.266,25.412L25.841,26.986C27.441,25.386 28.341,23.214 28.341,20.951L26.114,20.951ZM24.266,25.412C23.083,26.595 21.478,27.26 19.805,27.26L19.805,29.487C22.069,29.487 24.24,28.587 25.841,26.986L24.266,25.412ZM19.805,27.26L7.929,27.26L7.929,29.487L19.805,29.487L19.805,27.26ZM7.929,27.26C6.255,27.26 4.65,26.595 3.467,25.412L1.893,26.986C3.493,28.587 5.665,29.487 7.929,29.487L7.929,27.26ZM3.467,25.412C2.284,24.229 1.619,22.624 1.619,20.951L-0.608,20.951C-0.608,23.214 0.292,25.386 1.893,26.986L3.467,25.412Z" fill="#FFFFFF"/>
<path d="M21.208,6.117C20.794,6.572 20.828,7.276 21.283,7.69C21.738,8.103 22.442,8.07 22.855,7.615L21.208,6.117ZM22.874,7.595C23.287,7.14 23.254,6.436 22.799,6.022C22.344,5.608 21.64,5.642 21.226,6.097L22.874,7.595ZM22.855,7.615L22.874,7.595L21.226,6.097L21.208,6.117L22.855,7.615Z" fill="#FFFFFF"/>
</svg>
