<svg width="258" height="250" viewBox="0 0 258 250" fill="none" xmlns="http://www.w3.org/2000/svg" xmlns:xlink="http://www.w3.org/1999/xlink">
<g filter="url(#filter7_132)">
<path d="M128.064,0.03C97.677,0.007 68.275,10.803 45.125,30.486C21.975,50.169 6.588,77.451 1.723,107.446C-3.142,137.44 2.831,168.187 18.573,194.179C34.314,220.17 58.796,239.708 87.632,249.29C94.035,250.456 96.364,246.504 96.364,243.116C96.364,240.082 96.258,232.038 96.188,221.366C60.624,229.092 53.109,204.22 53.109,204.22C47.288,189.436 38.909,185.52 38.909,185.52C27.301,177.582 39.791,177.74 39.791,177.74C52.633,178.64 59.372,190.918 59.372,190.918C70.785,210.464 89.308,204.818 96.593,201.538C97.758,193.282 101.074,187.637 104.708,184.444C76.307,181.216 46.459,170.243 46.459,121.238C46.274,108.532 50.994,96.243 59.636,86.927C58.313,83.681 53.921,70.698 60.871,53.057C60.871,53.057 71.632,49.635 96.046,66.182C106.483,63.344 117.249,61.896 128.064,61.877C138.879,61.898 149.645,63.345 160.082,66.182C184.496,49.635 195.221,53.075 195.221,53.075C202.207,70.68 197.815,83.681 196.492,86.927C204.695,95.871 209.633,107.266 209.633,121.238C209.633,170.367 179.733,181.18 151.244,184.338C155.83,188.289 159.923,196.104 159.923,208.03C159.923,225.14 159.764,238.918 159.764,243.116C159.764,246.538 162.075,250.526 168.567,249.274C197.397,239.678 221.869,220.132 237.599,194.135C253.329,168.139 259.291,137.392 254.415,107.401C249.539,77.41 234.145,50.134 210.991,30.46C187.835,10.786 158.449,-0.002 128.064,0.03Z" clip-rule="evenodd" fill-rule="evenodd" transform="rotate(-57.151 128.073 124.769)" fill="#FFFFFF"/>
</g>
<defs>
<filter id="filter7_132" x="-64.4" y="-66.400023" width="212.872783" height="211.568936" filterUnits="userSpaceOnUse" color-interpolation-filters="sRGB">
<feFlood flood-opacity="0" result="BackgroundImageFix"/>
<feBlend mode="normal" in="SourceGraphic" in2="BackgroundImageFix" result="shape"/>
<feGaussianBlur stdDeviation="10.2" result="0foregroundblur"/>
</filter>
</defs>
</svg>
