<svg id="wave" style="transform:rotate(0deg); transition: 0.3s" viewBox="0 0 1440 310" version="1.1" xmlns="http://www.w3.org/2000/svg"><defs><linearGradient id="sw-gradient-0" x1="0" x2="0" y1="1" y2="0"><stop stop-color="rgba(52.686, 49.858, 48.949, 1)" offset="0%"></stop><stop stop-color="rgba(182.463, 177.47, 166.432, 1)" offset="100%"></stop></linearGradient></defs><path style="transform:translate(0, 0px); opacity:1" fill="url(#sw-gradient-0)" d="M0,0L40,20.7C80,41,160,83,240,113.7C320,145,400,165,480,155C560,145,640,103,720,72.3C800,41,880,21,960,51.7C1040,83,1120,165,1200,186C1280,207,1360,165,1440,160.2C1520,155,1600,186,1680,196.3C1760,207,1840,196,1920,196.3C2000,196,2080,207,2160,206.7C2240,207,2320,196,2400,201.5C2480,207,2560,227,2640,227.3C2720,227,2800,207,2880,211.8C2960,217,3040,248,3120,253.2C3200,258,3280,238,3360,196.3C3440,155,3520,93,3600,56.8C3680,21,3760,10,3840,36.2C3920,62,4000,124,4080,165.3C4160,207,4240,227,4320,242.8C4400,258,4480,269,4560,227.3C4640,186,4720,93,4800,93C4880,93,4960,186,5040,191.2C5120,196,5200,114,5280,108.5C5360,103,5440,176,5520,211.8C5600,248,5680,248,5720,248L5760,248L5760,310L5720,310C5680,310,5600,310,5520,310C5440,310,5360,310,5280,310C5200,310,5120,310,5040,310C4960,310,4880,310,4800,310C4720,310,4640,310,4560,310C4480,310,4400,310,4320,310C4240,310,4160,310,4080,310C4000,310,3920,310,3840,310C3760,310,3680,310,3600,310C3520,310,3440,310,3360,310C3280,310,3200,310,3120,310C3040,310,2960,310,2880,310C2800,310,2720,310,2640,310C2560,310,2480,310,2400,310C2320,310,2240,310,2160,310C2080,310,2000,310,1920,310C1840,310,1760,310,1680,310C1600,310,1520,310,1440,310C1360,310,1280,310,1200,310C1120,310,1040,310,960,310C880,310,800,310,720,310C640,310,560,310,480,310C400,310,320,310,240,310C160,310,80,310,40,310L0,310Z"></path><defs><linearGradient id="sw-gradient-1" x1="0" x2="0" y1="1" y2="0"><stop stop-color="rgba(48.133, 41.846, 39.827, 1)" offset="0%"></stop><stop stop-color="rgba(214.338, 210.357, 201.556, 1)" offset="100%"></stop></linearGradient></defs><path style="transform:translate(0, 50px); opacity:0.9" fill="url(#sw-gradient-1)" d="M0,124L40,118.8C80,114,160,103,240,113.7C320,124,400,155,480,180.8C560,207,640,227,720,222.2C800,217,880,186,960,144.7C1040,103,1120,52,1200,56.8C1280,62,1360,124,1440,170.5C1520,217,1600,248,1680,217C1760,186,1840,93,1920,87.8C2000,83,2080,165,2160,191.2C2240,217,2320,186,2400,149.8C2480,114,2560,72,2640,62C2720,52,2800,72,2880,72.3C2960,72,3040,52,3120,36.2C3200,21,3280,10,3360,10.3C3440,10,3520,21,3600,20.7C3680,21,3760,10,3840,51.7C3920,93,4000,186,4080,206.7C4160,227,4240,176,4320,165.3C4400,155,4480,186,4560,186C4640,186,4720,155,4800,118.8C4880,83,4960,41,5040,20.7C5120,0,5200,0,5280,25.8C5360,52,5440,103,5520,144.7C5600,186,5680,217,5720,232.5L5760,248L5760,310L5720,310C5680,310,5600,310,5520,310C5440,310,5360,310,5280,310C5200,310,5120,310,5040,310C4960,310,4880,310,4800,310C4720,310,4640,310,4560,310C4480,310,4400,310,4320,310C4240,310,4160,310,4080,310C4000,310,3920,310,3840,310C3760,310,3680,310,3600,310C3520,310,3440,310,3360,310C3280,310,3200,310,3120,310C3040,310,2960,310,2880,310C2800,310,2720,310,2640,310C2560,310,2480,310,2400,310C2320,310,2240,310,2160,310C2080,310,2000,310,1920,310C1840,310,1760,310,1680,310C1600,310,1520,310,1440,310C1360,310,1280,310,1200,310C1120,310,1040,310,960,310C880,310,800,310,720,310C640,310,560,310,480,310C400,310,320,310,240,310C160,310,80,310,40,310L0,310Z"></path></svg>