<svg width="444" height="566" viewBox="0 0 444 566" fill="none" xmlns="http://www.w3.org/2000/svg" xmlns:xlink="http://www.w3.org/1999/xlink">
<g filter="url(#filter7_131)">
<path d="M296.729,295.318C266.343,295.295 236.941,306.091 213.79,325.774C190.64,345.457 175.254,372.739 170.388,402.734C165.523,432.728 171.496,463.475 187.238,489.467C202.98,515.458 227.461,534.996 256.297,544.578C262.701,545.744 265.029,541.792 265.029,538.404C265.029,535.37 264.924,527.326 264.853,516.654C229.29,524.38 221.775,499.508 221.775,499.508C215.953,484.724 207.574,480.808 207.574,480.808C195.967,472.87 208.456,473.028 208.456,473.028C221.298,473.928 228.037,486.206 228.037,486.206C239.451,505.752 257.973,500.106 265.259,496.826C266.423,488.57 269.739,482.925 273.373,479.732C244.972,476.504 215.124,465.531 215.124,416.526C214.94,403.82 219.659,391.531 228.302,382.215C226.979,378.969 222.586,365.986 229.537,348.345C229.537,348.345 240.297,344.923 264.712,361.47C275.148,358.632 285.914,357.184 296.729,357.165C307.545,357.186 318.31,358.633 328.747,361.47C353.161,344.923 363.887,348.363 363.887,348.363C370.872,365.968 366.48,378.969 365.157,382.215C373.36,391.159 378.298,402.554 378.298,416.526C378.298,465.655 348.398,476.468 319.909,479.626C324.496,483.577 328.588,491.392 328.588,503.318C328.588,520.428 328.429,534.206 328.429,538.404C328.429,541.826 330.74,545.814 337.232,544.562C366.062,534.966 390.534,515.42 406.264,489.423C421.994,463.427 427.956,432.68 423.08,402.689C418.204,372.698 402.81,345.422 379.656,325.748C356.5,306.074 327.114,295.286 296.729,295.318Z" clip-rule="evenodd" fill-rule="evenodd" transform="rotate(18.894 296.738 420.057)" fill="#FFFFFF"/>
</g>
<g filter="url(#filter7_130)">
<path d="M64.083,280.04C90.303,280.04 111.583,258.76 111.583,232.54L111.583,185.04L64.083,185.04C37.863,185.04 16.583,206.32 16.583,232.54C16.583,258.76 37.863,280.04 64.083,280.04Z" transform="rotate(55.098 64.083 232.54)" fill="#0ACF83"/>
<path d="M60.522,148.312C60.522,122.092 81.802,100.812 108.022,100.812L155.522,100.812L155.522,195.812L108.022,195.812C81.802,195.812 60.522,174.532 60.522,148.312Z" transform="rotate(55.098 108.022 148.312)" fill="#A259FF"/>
<path d="M104.46,64.083C104.46,37.863 125.74,16.583 151.96,16.583L199.46,16.583L199.46,111.583L151.96,111.583C125.74,111.583 104.46,90.303 104.46,64.083Z" transform="rotate(55.098 151.96 64.083)" fill="#F24E1E"/>
<path d="M188.688,60.522L236.188,60.522C262.408,60.522 283.688,81.802 283.688,108.022C283.688,134.242 262.408,155.522 236.188,155.522L188.688,155.522L188.688,60.522Z" transform="rotate(55.098 236.188 108.022)" fill="#FF7262"/>
<path d="M239.75,192.25C239.75,218.47 218.47,239.75 192.25,239.75C166.03,239.75 144.75,218.47 144.75,192.25C144.75,166.03 166.03,144.75 192.25,144.75C218.47,144.75 239.75,166.03 239.75,192.25Z" transform="rotate(55.098 192.25 192.25)" fill="#1ABCFE"/>
</g>
<defs>
<filter id="filter7_131" x="129.600048" y="255.6" width="187.538096" height="184.856858" filterUnits="userSpaceOnUse" color-interpolation-filters="sRGB">
<feFlood flood-opacity="0" result="BackgroundImageFix"/>
<feBlend mode="normal" in="SourceGraphic" in2="BackgroundImageFix" result="shape"/>
<feGaussianBlur stdDeviation="10.2" result="0foregroundblur"/>
</filter>
<filter id="filter7_130" x="-20.399969" y="-20.4" width="190.935905" height="211.080927" filterUnits="userSpaceOnUse" color-interpolation-filters="sRGB">
<feFlood flood-opacity="0" result="BackgroundImageFix"/>
<feBlend mode="normal" in="SourceGraphic" in2="BackgroundImageFix" result="shape"/>
<feGaussianBlur stdDeviation="10.2" result="0foregroundblur"/>
</filter>
</defs>
</svg>
