<svg width="166" height="162" viewBox="0 0 166 162" fill="none" xmlns="http://www.w3.org/2000/svg" xmlns:xlink="http://www.w3.org/1999/xlink">
<path d="M82.851,0C63.179,0.003 44.15,7.005 29.167,19.752C14.184,32.5 4.225,50.163 1.072,69.581C-2.082,88.999 1.776,108.905 11.955,125.739C22.135,142.573 37.971,155.236 56.631,161.464C60.774,162.233 62.55,159.688 62.55,157.498L62.55,143.411C39.526,148.383 34.673,132.284 34.673,132.284C33.054,127.211 29.646,122.899 25.084,120.151C17.568,115.061 25.676,115.12 25.676,115.12C28.302,115.491 30.808,116.457 33.003,117.944C35.198,119.432 37.025,121.401 38.342,123.702C40.635,127.814 44.467,130.847 48.995,132.135C53.524,133.422 58.378,132.859 62.491,130.568C62.825,126.368 64.676,122.434 67.699,119.5C49.351,117.369 29.997,110.266 29.997,78.542C29.863,70.303 32.916,62.33 38.52,56.288C35.984,49.151 36.28,41.313 39.349,34.388C39.349,34.388 46.274,32.139 62.136,42.852C75.698,39.153 90.004,39.153 103.567,42.852C119.37,32.139 126.295,34.388 126.295,34.388C129.363,41.313 129.66,49.151 127.123,56.288C132.727,62.33 135.781,70.303 135.646,78.542C135.646,110.385 116.292,117.369 97.826,119.441C99.804,121.446 101.329,123.851 102.299,126.496C103.269,129.14 103.661,131.961 103.448,134.77L103.448,157.498C103.448,160.221 104.928,162.292 109.367,161.464C128.052,155.228 143.905,142.541 154.082,125.676C164.26,108.811 168.097,88.872 164.905,69.434C161.712,49.997 151.7,32.332 136.664,19.608C121.627,6.884 102.549,-0.068 82.851,0Z" clip-rule="evenodd" fill-rule="evenodd" fill="#FFFFFF"/>
</svg>
