<svg width="32" height="30" viewBox="0 0 32 30" fill="none" xmlns="http://www.w3.org/2000/svg" xmlns:xlink="http://www.w3.org/1999/xlink">
<path d="M26.875,0.437C27.734,0.437 28.558,0.778 29.165,1.386C29.772,1.993 30.114,2.817 30.114,3.676L30.114,26.349C30.114,27.208 29.772,28.032 29.165,28.639C28.558,29.247 27.734,29.588 26.875,29.588L4.202,29.588C3.343,29.588 2.519,29.247 1.912,28.639C1.304,28.032 0.963,27.208 0.963,26.349L0.963,3.676C0.963,2.817 1.304,1.993 1.912,1.386C2.519,0.778 3.343,0.437 4.202,0.437L26.875,0.437ZM26.065,25.539L26.065,16.956C26.065,15.556 25.509,14.213 24.519,13.223C23.528,12.233 22.186,11.676 20.785,11.676C19.409,11.676 17.806,12.518 17.028,13.782L17.028,11.984L12.51,11.984L12.51,25.539L17.028,25.539L17.028,17.555C17.028,16.308 18.032,15.288 19.279,15.288C19.881,15.288 20.457,15.527 20.883,15.952C21.308,16.377 21.547,16.954 21.547,17.555L21.547,25.539L26.065,25.539ZM7.247,9.441C7.968,9.441 8.66,9.155 9.17,8.644C9.681,8.134 9.967,7.442 9.967,6.721C9.967,5.215 8.753,3.984 7.247,3.984C6.521,3.984 5.824,4.272 5.311,4.785C4.798,5.299 4.51,5.995 4.51,6.721C4.51,8.227 5.74,9.441 7.247,9.441ZM9.498,25.539L9.498,11.984L5.012,11.984L5.012,25.539L9.498,25.539Z" fill="#FFFFFF"/>
</svg>
