<svg width="32" height="32" viewBox="0 0 32 32" fill="none" xmlns="http://www.w3.org/2000/svg" xmlns:xlink="http://www.w3.org/1999/xlink">
<path d="M15.385,0C13.365,0 11.364,0.398 9.497,1.171C7.631,1.944 5.935,3.078 4.506,4.506C1.621,7.391 0,11.305 0,15.385C0,22.185 4.416,27.955 10.523,30.001C11.293,30.124 11.539,29.647 11.539,29.232L11.539,26.632C7.277,27.555 6.369,24.57 6.369,24.57C5.662,22.785 4.662,22.308 4.662,22.308C3.262,21.355 4.769,21.385 4.769,21.385C6.308,21.493 7.123,22.97 7.123,22.97C8.462,25.309 10.723,24.616 11.6,24.247C11.739,23.247 12.139,22.57 12.57,22.185C9.154,21.801 5.569,20.478 5.569,14.616C5.569,12.908 6.154,11.539 7.154,10.447C7,10.062 6.462,8.462 7.308,6.385C7.308,6.385 8.6,5.969 11.539,7.954C12.754,7.616 14.077,7.446 15.385,7.446C16.693,7.446 18.016,7.616 19.231,7.954C22.17,5.969 23.462,6.385 23.462,6.385C24.309,8.462 23.77,10.062 23.616,10.447C24.616,11.539 25.201,12.908 25.201,14.616C25.201,20.493 21.601,21.785 18.17,22.17C18.724,22.647 19.231,23.585 19.231,25.016L19.231,29.232C19.231,29.647 19.478,30.14 20.262,30.001C26.37,27.939 30.77,22.185 30.77,15.385C30.77,13.365 30.372,11.364 29.599,9.497C28.826,7.631 27.693,5.935 26.264,4.506C24.835,3.078 23.139,1.944 21.273,1.171C19.406,0.398 17.406,0 15.385,0Z" fill="#FFFFFF"/>
</svg>
